<svg xmlns="http://www.w3.org/2000/svg" viewBox="0 0 320 220" fill="none">
  <rect x="56" y="30" width="208" height="156" rx="11" fill="#fff" stroke="#D2C9F7" stroke-width="3"/>
  <path d="M56 42a12 12 0 0 1 12-12h184a12 12 0 0 1 12 12v17H56V42Z" fill="#EEEAFE"/>
  <circle cx="73" cy="45" r="3" fill="#E8969A"/><circle cx="85" cy="45" r="3" fill="#F1C76B"/><circle cx="97" cy="45" r="3" fill="#80C9A7"/>
  <rect x="76" y="77" width="87" height="9" rx="4.5" fill="#6F64C8"/>
  <rect x="76" y="97" width="115" height="6" rx="3" fill="#D3D6E5"/>
  <rect x="76" y="110" width="91" height="6" rx="3" fill="#D3D6E5"/>
  <rect x="76" y="130" width="61" height="24" rx="6" fill="#7062CD"/>
  <rect x="172" y="78" width="70" height="73" rx="8" fill="#EEEAFE"/>
  <circle cx="207" cy="107" r="16" fill="#C6BDF5"/>
  <path d="M184 143c2-13 10-20 23-20s21 7 23 20h-46Z" fill="#9384E8"/>
  <path d="M43 186h234" stroke="#C2B8F0" stroke-width="4" stroke-linecap="round"/>
  <circle cx="266" cy="76" r="8" fill="#F6C66C"/><path d="m266 71 2 4 4 1-3 3 1 5-4-2-4 2 1-5-3-3 4-1 2-4Z" fill="#fff"/>
</svg>
